<svg width="55" height="43" viewBox="0 0 55 43" fill="none" xmlns="http://www.w3.org/2000/svg">
<path d="M2.75 38.2193H27.1071C28.6251 38.2193 29.8571 39.2895 29.8571 40.608C29.8571 41.9267 28.6251 42.9968 27.1071 42.9968H2.75C1.23202 42.9968 0 41.9267 0 40.608C0 39.2895 1.23202 38.2193 2.75 38.2193ZM52.25 4.77742H2.75C1.23202 4.77742 0 3.70734 0 2.38871C0 1.07008 1.23202 0 2.75 0H52.25C53.768 7.80624e-05 55 1.07016 55 2.38879C55 3.70734 53.768 4.77742 52.25 4.77742ZM2.75 19.1097H40.0714C41.5894 19.1097 42.8214 20.1798 42.8214 21.4984C42.8214 22.8171 41.5894 23.8872 40.0714 23.8872H2.75C1.23202 23.8872 0 22.817 0 21.4984C0 20.1799 1.23202 19.1097 2.75 19.1097Z" fill="#212733"/>
</svg>
