<svg width="130" height="82" viewBox="0 0 130 82" fill="none" xmlns="http://www.w3.org/2000/svg">
<g clip-path="url(#clip0_26904_119)">
<path d="M10.1688 63.5257L115.132 37.0006L129.745 54.3902V57.0347L30.3601 81.6365L10.1688 65.8496V63.5257Z" fill="#D9D9D9" stroke="black"/>
<path d="M10.0245 63.1834L114.988 36.8987" stroke="black" stroke-linecap="round"/>
<path d="M15.1658 67.1318L119.029 41.6485" stroke="black" stroke-linecap="round"/>
<path d="M20.1941 71.2989L122.172 45.8156" stroke="black" stroke-linecap="round"/>
<path d="M25.5365 75.1455L125.943 50.143" stroke="black" stroke-linecap="round"/>
<path d="M30.4076 79.1671L129.714 54.4852" stroke="black" stroke-linecap="round"/>
<path d="M30.4076 81.7315L129.714 57.0495" stroke="black" stroke-linecap="round"/>
<path d="M9.98047 63.201L30.2503 79.0679" stroke="black" stroke-linecap="round"/>
<path d="M9.98047 65.8646L30.2503 81.7315" stroke="black" stroke-linecap="round"/>
<path d="M115.132 37.0006L129.902 54.4703" stroke="black" stroke-linecap="round"/>
<path d="M129.902 54.4852V56.8893" stroke="black" stroke-linecap="round"/>
<path d="M30.4076 79.3275V81.7315" stroke="black" stroke-linecap="round"/>
<path d="M9.98047 63.4605V65.8646" stroke="black" stroke-linecap="round"/>
<path d="M26.1033 59.1466L30.9743 63.3137" stroke="black"/>
<path d="M37.5737 56.4219L42.4448 60.589" stroke="black"/>
<path d="M33.8026 62.3521L38.6737 66.5191" stroke="black"/>
<path d="M34.1169 67.6411L38.988 71.8081" stroke="black"/>
<path d="M43.7019 65.2369L48.573 69.404" stroke="black"/>
<path d="M53.2869 63.1534L58.1579 67.3205" stroke="black"/>
<path d="M62.7457 60.7493L67.6168 64.9164" stroke="black"/>
<path d="M72.0165 58.3452L76.8875 62.5123" stroke="black"/>
<path d="M81.13 55.9411L86.0011 60.1082" stroke="black"/>
<path d="M99.8286 51.4535L104.7 55.6206" stroke="black"/>
<path d="M106.898 54.9787L111.612 58.9855" stroke="black"/>
<path d="M97.9419 57.2225L102.656 61.2293" stroke="black"/>
<path d="M89.1426 59.4663L93.8565 63.4731" stroke="black"/>
<path d="M80.0289 61.8704L84.7428 65.8772" stroke="black"/>
<path d="M71.0726 63.9539L75.7865 67.9608" stroke="black"/>
<path d="M61.7708 66.1978L66.4847 70.2046" stroke="black"/>
<path d="M52.8143 68.6018L57.5282 72.6086" stroke="black"/>
<path d="M43.7008 70.8456L48.4147 74.8525" stroke="black"/>
<path d="M34.2729 72.9292L38.9869 76.936" stroke="black"/>
<path d="M116.075 52.3867L120.789 56.7141" stroke="black"/>
<path d="M109.318 48.8608L114.032 53.1881" stroke="black"/>
<path d="M90.5579 53.8576L95.4289 58.0247" stroke="black"/>
<path d="M43.3876 60.1082L48.2586 64.2753" stroke="black"/>
<path d="M52.8466 58.0247L57.7176 62.1917" stroke="black"/>
<path d="M62.2744 55.4603L67.1455 59.6274" stroke="black"/>
<path d="M71.7023 53.2165L76.5733 57.3836" stroke="black"/>
<path d="M80.8158 50.9727L85.6868 55.1398" stroke="black"/>
<path d="M90.0864 48.5686L94.9575 52.7357" stroke="black"/>
<path d="M100.771 46.0042L105.642 50.1713" stroke="black"/>
<path d="M112.932 42.9307L117.803 47.0977" stroke="black"/>
<path d="M82.0729 45.3484L86.9439 49.5155" stroke="black"/>
<path d="M92.1292 42.9443L97.0002 47.1114" stroke="black"/>
<path d="M102.657 40.3799L107.528 44.547" stroke="black"/>
<path d="M7.65479 59.599L103.819 36.1992" stroke="black"/>
<path d="M65.5573 5.36175L66.8143 6.88433L68.3856 8.24665L73.021 9.84937L76.4779 11.8528L79.6205 13.2952L84.1773 16.5808L88.1055 19.5458L91.1696 22.3506L93.0551 23.7129L96.9048 27.6396L99.4975 30.3642L101.697 33.2491L103.19 35.2525L104.369 37.9772L104.761 39.4196L104.84 40.4614L104.683 41.6634L104.604 42.7052L104.054 43.5066L103.269 44.2278L102.404 44.4682L99.4189 44.949H96.0406L91.4053 43.9072L87.0056 42.7052L82.606 41.0223L7.8118 59.2785L6.86902 56.4886L7.34041 52.8825L8.44032 47.7538L9.38311 44.3881L10.2473 42.0641L11.1901 39.7402L11.8186 36.9354L11.6615 35.3327L11.1115 33.3293L10.483 31.0053L10.0116 26.5177L9.54024 22.5109L9.46167 18.8246L9.54024 18.3438L9.6188 17.9431L9.93306 17.7027L10.0902 17.5424L10.3259 17.7027L10.7973 17.863L11.4258 18.0233L13.1542 18.5842L14.5684 19.3054L16.2969 20.5075L18.1039 22.4307L18.8109 22.9116L19.5966 23.3122L20.2251 23.3924L20.7751 23.2321L21.5607 22.8314L24.3105 20.5876L28.6316 17.863L33.267 15.539L37.4309 13.4555L42.0663 11.5322L46.8588 10.1699L50.8656 9.60896L53.3011 9.20828L53.8511 8.88774L54.4796 8.64733L54.7153 8.08638L55.6581 6.48365L56.4437 4.80079L58.8007 1.75562L59.5863 1.19467L59.9792 0.874122L60.372 0.473441L60.6862 0.393305L61.0005 0.313168L61.3933 0.233032L61.7862 0.313168L62.4147 0.233032L63.0432 0.793985L65.5573 5.36175Z" fill="white"/>
<path d="M55.9724 35.0121L56.2867 35.2525L56.8366 35.4929L57.6223 35.6532H58.3294L59.1936 35.5731L59.9792 35.4128L60.6078 35.0121L61.0792 34.4511L61.3934 33.8101L61.5505 33.3292L61.6291 32.5279L61.7862 32.2875L62.1005 32.1272H62.4148L62.5719 32.2875L62.8076 32.5279L63.0433 32.7683L63.3575 33.0888L63.8289 33.3292L64.3789 33.4895H64.8503H65.4788L65.8716 33.4094L66.2645 33.2491L66.7359 33.0087L67.0501 32.6882L67.2858 32.2875L67.5215 31.8868L67.6001 31.406" stroke="black" stroke-linecap="round"/>
<path d="M43.559 41.5032C44.9908 41.5032 46.1516 40.3909 46.1516 39.0189C46.1516 37.647 44.9908 36.5347 43.559 36.5347C42.1271 36.5347 40.9663 37.647 40.9663 39.0189C40.9663 40.3909 42.1271 41.5032 43.559 41.5032Z" fill="black"/>
<path d="M74.3566 31.5663C75.7885 31.5663 76.9492 30.454 76.9492 29.082C76.9492 27.71 75.7885 26.5978 74.3566 26.5978C72.9247 26.5978 71.7639 27.71 71.7639 29.082C71.7639 30.454 72.9247 31.5663 74.3566 31.5663Z" fill="black"/>
<path d="M7.96891 59.3586L7.49751 58.1565L7.18325 56.634L7.02612 54.7908L7.41895 52.4017L8.75456 46.5517L9.93304 43.0257L10.9544 40.7018L11.74 38.3778L11.8972 36.3744L11.5043 34.6114L10.9544 32.7683L10.4044 29.4026L9.93304 25.5411L9.69734 22.3506V20.9883V19.8515V19.3706L9.77591 19.1302L10.0902 18.3289L10.6401 18.0885H11.4258L11.9757 18.3289L12.6043 18.6643L14.2541 19.6111L16.454 21.1485L17.5539 22.1903L18.8109 23.0718L19.7537 23.5526H20.4608L21.4036 23.0718L22.6606 21.8698L24.0748 20.7479L26.1961 19.3054L28.8673 17.7828L34.1311 15.0582L40.0235 12.4137L43.6375 11.1315L47.5658 10.0898L50.9441 9.60894L52.9082 9.36853L54.1653 9.12812L54.7938 8.56717L55.5795 6.68397L56.6008 4.80077L57.7793 3.103L58.5649 2.14137L59.5863 1.27478L60.2148 0.874097L60.9219 0.553552L61.5504 0.39328H61.9433L62.4932 0.633689L63.0432 1.27478L65.6358 5.60213L66.8929 7.04458L69.4855 8.56717L74.278 10.4904L80.4847 13.8562L86.7699 18.5041L91.1695 22.1903L93.5265 24.1937L96.6691 27.3992L98.2404 29.0019L99.9689 30.9252L101.697 33.169L103.74 36.2141" stroke="black" stroke-linecap="round"/>
<path d="M103.74 36.2142L104.133 37.0957L104.526 38.2977L104.761 39.4998V40.5415V41.5833C104.683 42.1976 104.117 43.6348 102.483 44.4682C100.849 45.3016 98.2405 45.1894 97.1406 45.0291C94.5742 44.8421 87.6185 43.5546 80.3276 39.9004" stroke="black" stroke-linecap="round"/>
<path d="M28.1602 41.5031C28.9846 41.5031 29.653 40.9291 29.653 40.221C29.653 39.5128 28.9846 38.9388 28.1602 38.9388C27.3358 38.9388 26.6675 39.5128 26.6675 40.221C26.6675 40.9291 27.3358 41.5031 28.1602 41.5031Z" fill="#FFC0CB"/>
<path d="M32.5598 40.221C33.2107 40.221 33.7383 39.5752 33.7383 38.7785C33.7383 37.9819 33.2107 37.3361 32.5598 37.3361C31.909 37.3361 31.3813 37.9819 31.3813 38.7785C31.3813 39.5752 31.909 40.221 32.5598 40.221Z" fill="#FFC0CB"/>
<path d="M30.5957 46.9524C31.5503 46.9524 32.3242 45.8761 32.3242 44.5483C32.3242 43.2206 31.5503 42.1442 30.5957 42.1442C29.6412 42.1442 28.8673 43.2206 28.8673 44.5483C28.8673 45.8761 29.6412 46.9524 30.5957 46.9524Z" fill="#FFC0CB"/>
<path d="M34.7596 43.9072C35.3237 43.9072 35.781 43.4049 35.781 42.7853C35.781 42.1657 35.3237 41.6634 34.7596 41.6634C34.1956 41.6634 33.7383 42.1657 33.7383 42.7853C33.7383 43.4049 34.1956 43.9072 34.7596 43.9072Z" fill="#FFC0CB"/>
<path d="M22.2678 43.186L23.6034 39.8203C23.8391 39.2058 24.5148 37.7367 25.3319 36.7751C26.3532 35.5731 27.6888 34.8518 28.2388 34.6916C28.6159 34.371 30.1506 33.9703 30.91 33.8902H32.3242C32.6647 33.8634 34.1312 34.2748 35.7025 35.4929C37.2738 36.711 38.1903 40.3812 38.4523 42.0641C38.5046 42.8119 39.1803 45.0687 38.4523 47.5935C37.6666 50.3181 37.5095 51.3599 37.5095 51.6804" stroke="black" stroke-linecap="round"/>
</g>
<defs>
<clipPath id="clip0_26904_119">
<rect width="130" height="82" fill="white"/>
</clipPath>
</defs>
</svg>
