<svg width="130" height="82" viewBox="0 0 130 82" fill="none" xmlns="http://www.w3.org/2000/svg">
<g clip-path="url(#clip0_26967_178)">
<path d="M10.1688 63.5257L115.132 37.0006L129.745 54.3902V57.0347L30.3601 81.6365L10.1688 65.8496V63.5257Z" fill="#D9D9D9" stroke="black"/>
<path d="M10.0245 63.1834L114.988 36.8987" stroke="black" stroke-linecap="round"/>
<path d="M15.1658 67.1318L119.029 41.6485" stroke="black" stroke-linecap="round"/>
<path d="M20.1941 71.2989L122.172 45.8156" stroke="black" stroke-linecap="round"/>
<path d="M25.5365 75.1455L125.943 50.143" stroke="black" stroke-linecap="round"/>
<path d="M30.4076 79.1671L129.714 54.4852" stroke="black" stroke-linecap="round"/>
<path d="M30.4076 81.7315L129.714 57.0495" stroke="black" stroke-linecap="round"/>
<path d="M9.98047 63.201L30.2503 79.0679" stroke="black" stroke-linecap="round"/>
<path d="M9.98047 65.8646L30.2503 81.7315" stroke="black" stroke-linecap="round"/>
<path d="M115.132 37.0006L129.902 54.4703" stroke="black" stroke-linecap="round"/>
<path d="M129.902 54.4852V56.8893" stroke="black" stroke-linecap="round"/>
<path d="M30.4076 79.3274V81.7315" stroke="black" stroke-linecap="round"/>
<path d="M9.98047 63.4605V65.8645" stroke="black" stroke-linecap="round"/>
<path d="M26.1033 59.1466L30.9743 63.3137" stroke="black"/>
<path d="M37.5737 56.4219L42.4448 60.589" stroke="black"/>
<path d="M33.8026 62.352L38.6737 66.5191" stroke="black"/>
<path d="M34.1169 67.641L38.988 71.8081" stroke="black"/>
<path d="M43.7019 65.2369L48.573 69.404" stroke="black"/>
<path d="M53.2869 63.1534L58.1579 67.3205" stroke="black"/>
<path d="M62.7457 60.7493L67.6168 64.9164" stroke="black"/>
<path d="M72.0165 58.3452L76.8875 62.5123" stroke="black"/>
<path d="M81.13 55.9411L86.0011 60.1082" stroke="black"/>
<path d="M99.8286 51.4535L104.7 55.6206" stroke="black"/>
<path d="M106.898 54.9787L111.612 58.9855" stroke="black"/>
<path d="M97.9419 57.2225L102.656 61.2293" stroke="black"/>
<path d="M89.1426 59.4663L93.8565 63.4731" stroke="black"/>
<path d="M80.0289 61.8704L84.7428 65.8772" stroke="black"/>
<path d="M71.0726 63.9539L75.7865 67.9608" stroke="black"/>
<path d="M61.7708 66.1978L66.4847 70.2046" stroke="black"/>
<path d="M52.8143 68.6018L57.5282 72.6086" stroke="black"/>
<path d="M43.7008 70.8456L48.4147 74.8525" stroke="black"/>
<path d="M34.2729 72.9292L38.9869 76.936" stroke="black"/>
<path d="M116.075 52.3867L120.789 56.7141" stroke="black"/>
<path d="M109.318 48.8608L114.032 53.1881" stroke="black"/>
<path d="M90.5579 53.8576L95.4289 58.0247" stroke="black"/>
<path d="M43.3876 60.1082L48.2586 64.2753" stroke="black"/>
<path d="M52.8466 58.0247L57.7176 62.1918" stroke="black"/>
<path d="M62.2744 55.4603L67.1455 59.6274" stroke="black"/>
<path d="M71.7023 53.2165L76.5733 57.3836" stroke="black"/>
<path d="M80.8158 50.9727L85.6868 55.1398" stroke="black"/>
<path d="M90.0864 48.5686L94.9575 52.7357" stroke="black"/>
<path d="M100.771 46.0042L105.642 50.1713" stroke="black"/>
<path d="M112.932 42.9307L117.803 47.0978" stroke="black"/>
<path d="M82.0729 45.3484L86.9439 49.5155" stroke="black"/>
<path d="M92.1292 42.9443L97.0002 47.1114" stroke="black"/>
<path d="M102.657 40.38L107.528 44.547" stroke="black"/>
<path d="M8 59L104 36" stroke="black" stroke-linecap="round"/>
<path d="M65.6883 5.12871L66.9453 6.6513L68.5166 8.01362L73.152 9.61634L76.6088 11.6197L79.7515 13.0622L84.3083 16.3478L88.2365 19.3128L91.3006 22.1176L93.1861 23.4799L97.0358 27.4066L99.6285 30.1312L101.828 33.0161L103.321 35.0195L104 35.5L8 58.5L7 56.2556L7.47139 52.6495L8.57131 47.5207L9.51409 44.155L10.3783 41.8311L11.3211 39.5071L11.9496 36.7024L11.7925 35.0996L11.2425 33.0962L10.614 30.7723L10.1426 26.2847L9.67122 22.2779V19.4192L10.1426 18.3605L10.4569 18.1108H10.9283H11.4082L12 18.5L13 19L14 19.5L15.5 20.5L17.5 22.5L18.5 23L19.5 23.5H20.5L21.5 23L21.6917 22.5984L24.4415 20.3546L28.7626 17.63L33.3979 15.306L37.5619 13.2225L42.1973 11.2992L46.9897 9.93688L50.9966 9.37593L53.4321 8.97525L53.982 8.65471L54.6106 8.4143L54.8463 7.85334L55.789 6.25062L56.5747 4.56776L58.9317 1.52259L59.7173 0.961634L60.1101 0.641089L60.503 0.240408L60.8172 0.160272L61.1315 0.0801362L61.5243 0L61.9171 0.0801362L62.5457 0L63.1742 0.560953L65.6883 5.12871Z" fill="white"/>
<path d="M55.9724 35.0121L56.2867 35.2525L56.8366 35.4929L57.6223 35.6532H58.3294L59.1936 35.5731L59.9792 35.4128L60.6078 35.0121L61.0792 34.4512L61.3934 33.8101L61.5505 33.3293L61.6291 32.5279L61.7862 32.2875L62.1005 32.1272H62.4148L62.5719 32.2875L62.8076 32.5279L63.0433 32.7683L63.3575 33.0888L63.8289 33.3293L64.3789 33.4895H64.8503H65.4788L65.8716 33.4094L66.2645 33.2491L66.7359 33.0087L67.0501 32.6882L67.2858 32.2875L67.5215 31.8868L67.6001 31.406" stroke="black" stroke-linecap="round"/>
<path d="M43.559 41.5032C44.9908 41.5032 46.1516 40.3909 46.1516 39.0189C46.1516 37.6469 44.9908 36.5347 43.559 36.5347C42.1271 36.5347 40.9663 37.6469 40.9663 39.0189C40.9663 40.3909 42.1271 41.5032 43.559 41.5032Z" fill="black"/>
<path d="M74.3566 31.5663C75.7885 31.5663 76.9492 30.454 76.9492 29.082C76.9492 27.71 75.7885 26.5978 74.3566 26.5978C72.9247 26.5978 71.7639 27.71 71.7639 29.082C71.7639 30.454 72.9247 31.5663 74.3566 31.5663Z" fill="black"/>
<path d="M7.5 58.5L7.18325 56.634L7.02612 54.7908L7.41895 52.4017L8.75456 46.5517L9.93304 43.0257L10.9544 40.7018L11.74 38.3778L11.8972 36.3744L11.5043 34.6114L10.9544 32.7683L10.4044 29.4026L9.93304 25.5411L9.69734 22.3506V20.9883V19.8515V19.3707L9.77591 19.1303L10.0902 18.3289L10.6401 18.0885H11.4258L11.9757 18.3289L12.6043 18.6643L14.2541 19.6111L16.454 21.1486L17.5539 22.1903L18.8109 23.0718L19.7537 23.5526H20.4608L21.4036 23.0718L22.6606 21.8698L24.0748 20.7479L26.1961 19.3054L28.8673 17.7828L34.1311 15.0582L40.0235 12.4137L43.6375 11.1315L47.5658 10.0898L50.9441 9.60895L52.9082 9.36855L54.1653 9.12814L54.7938 8.56718L55.5795 6.68398L56.6008 4.80078L57.7793 3.10302L58.5649 2.14139L59.5863 1.27479L60.2148 0.874112L60.9219 0.553568L61.5504 0.393295H61.9433L62.4932 0.633704L63.0432 1.27479L65.6358 5.60215L66.8929 7.0446L69.4855 8.56718L74.278 10.4905L80.4847 13.8562L86.7699 18.5041L91.1695 22.1903" stroke="black" stroke-linecap="round"/>
<path d="M85.5 29.5L86 34.5L103.5 35.5L102 30L100.5 27L97 23L94 21.5L90.5 22L87.5 24.5L85.5 29.5Z" fill="white"/>
<path d="M90.4718 30.1116C91.2313 29.7909 91.6236 29.0021 91.3481 28.3497C91.0726 27.6974 90.2336 27.4285 89.4741 27.7493C88.7147 28.07 88.3223 28.8588 88.5978 29.5112C88.8733 30.1635 89.7123 30.4324 90.4718 30.1116Z" fill="#FFC0CB"/>
<path d="M93.5439 27.0576C94.1435 26.8044 94.3783 26.0042 94.0684 25.2703C93.7585 24.5364 93.0212 24.1468 92.4216 24.4C91.822 24.6532 91.5872 25.4534 91.8971 26.1873C92.207 26.9211 92.9443 27.3108 93.5439 27.0576Z" fill="#FFC0CB"/>
<path d="M94.8355 34.1841C95.7149 33.8127 96.0091 32.5201 95.4925 31.297C94.976 30.0738 93.8443 29.3833 92.965 29.7547C92.0856 30.1261 91.7914 31.4187 92.308 32.6418C92.8245 33.865 93.9561 34.5555 94.8355 34.1841Z" fill="#FFC0CB"/>
<path d="M97.4867 29.7589C98.0063 29.5395 98.2321 28.8988 97.9911 28.328C97.75 27.7572 97.1334 27.4724 96.6137 27.6919C96.0941 27.9113 95.8683 28.5519 96.1093 29.1227C96.3504 29.6935 96.967 29.9784 97.4867 29.7589Z" fill="#FFC0CB"/>
<path d="M85.9468 34.4307L85.7272 30.8163C85.6798 30.1599 85.6679 28.543 85.9995 27.3254C86.4139 25.8035 87.317 24.5835 87.7469 24.2049C87.9523 23.7546 89.1717 22.7403 89.8253 22.3454L91.1057 21.745C91.4027 21.5762 92.9051 21.3262 94.8449 21.762C96.7847 22.1978 99.1726 25.1318 100.124 26.5443C100.489 27.1992 101 28 102 30.5C103 33 103.864 35.7098 104 36" stroke="black" stroke-linecap="round"/>
<path d="M9 62L7.5 58.5L9 58L29.5 48L31 53L33 60L34 66.5L33 70L30.5 72L28 73H24L20.5 72.5L15.5 69L11.5 65.5L9 62Z" fill="white"/>
<path d="M7.5 58.5L8.5 61.5L11 65L16 69.5L18.5 71L20.5 72.5L22.5 73H25H27L29.5 72.5L31.5 71.5L33 70L34 67L33 59.5L29.5 48" stroke="black" stroke-linecap="round"/>
</g>
<defs>
<clipPath id="clip0_26967_178">
<rect width="130" height="82" fill="white"/>
</clipPath>
</defs>
</svg>
