<svg width="66" height="44" viewBox="0 0 66 44" fill="none" xmlns="http://www.w3.org/2000/svg">
<path d="M20.8413 32.9311H30.0455V35.0544H20.8413V36.8047H49.7893V35.0544H39.0578V32.9311H50.9935V28.083H20.8413V32.9311Z" fill="white"/>
<path d="M12.825 3.76008H56.7079V21.3008H60.468V0H9.06494V11.7465H12.825V3.76008Z" fill="white"/>
<path d="M0 42.3716H19.6289V12.9263H0V42.3716ZM10.2287 40.893C9.70699 40.893 9.2826 40.4713 9.2826 39.9483C9.2826 39.4266 9.70699 39.0035 10.2287 39.0035C10.7518 39.0035 11.1735 39.4252 11.1735 39.9483C11.1735 40.4713 10.7518 40.893 10.2287 40.893ZM2.8383 15.7646H16.7933L16.7919 37.4871H2.8383V15.7646Z" fill="white"/>
<path d="M52.3262 22.4321V43.1612H66V22.4321H52.3262ZM59.4409 23.289C59.6044 23.289 59.7382 23.4255 59.7382 23.5877C59.7382 23.7513 59.6044 23.8878 59.4409 23.8878C59.2746 23.8878 59.1395 23.7513 59.1395 23.5877C59.1395 23.4242 59.2733 23.289 59.4409 23.289ZM57.6649 24.2838H61.2101V24.5703H57.6649V24.2838ZM59.3219 42.2665C58.9286 42.2665 58.6137 41.9475 58.6137 41.5569C58.6137 41.1649 58.9286 40.8487 59.3219 40.8487C59.7125 40.8487 60.0315 41.1649 60.0315 41.5569C60.0315 41.9461 59.7125 42.2665 59.3219 42.2665ZM64.0227 39.8255C60.8222 39.8431 55.8916 39.8553 54.3062 39.8417V25.5894L64.0227 25.5881V39.8255Z" fill="white"/>
</svg>
