<svg width="48" height="44" viewBox="0 0 48 44" fill="none" xmlns="http://www.w3.org/2000/svg">
<path d="M41.7537 3.22135C38.6914 3.22135 36.1787 5.73405 36.1787 8.7964C36.1787 9.26753 36.2572 9.66014 36.3357 10.0528L31.0747 13.5077C29.4258 11.6232 27.0701 10.3668 24.3218 10.3668C22.2803 10.3668 20.3957 11.0735 18.9038 12.2514L10.2664 6.2837C10.8161 4.00656 9.63824 1.49386 7.43963 0.473078C4.8484 -0.704751 1.78605 0.394557 0.608218 2.90726C-0.569611 5.41996 0.529696 8.56084 3.0424 9.73867C4.37727 10.3668 5.86919 10.3668 7.20406 9.81719L16.077 16.0204C15.6844 16.9627 15.4489 18.062 15.4489 19.1613C15.4489 19.7895 15.5274 20.3391 15.6059 20.9673L10.1879 22.9303C9.4812 22.1451 8.53893 21.517 7.3611 21.2029C4.29875 20.3391 1.07935 22.1451 0.215608 25.286C-0.648133 28.3484 1.15787 31.5678 4.29875 32.4315C7.3611 33.2952 10.5805 31.4892 11.4442 28.3484C11.5228 28.0343 11.6013 27.7202 11.6013 27.4061L17.8045 25.2075C19.4535 26.935 21.7306 28.0343 24.2433 28.0343C24.4789 28.0343 24.7145 28.0343 24.95 28.0343L25.8138 32.4315C24.1648 33.7664 23.2225 35.8865 23.4581 38.0851C23.7722 41.6971 26.9916 44.2883 30.6036 43.9742C34.2156 43.6601 36.8068 40.4407 36.4927 36.8287C36.1786 33.6093 33.5874 31.1752 30.4466 30.9396L29.5043 26.3068C31.7029 24.7364 33.1948 22.0666 33.1948 19.1613C33.1948 18.6902 33.1163 18.219 33.1163 17.8264L39.3195 13.7433C40.1048 14.1359 40.9685 14.3715 41.8322 14.3715C44.8946 14.3715 47.4073 11.8588 47.4073 8.7964C47.3288 5.73405 44.8161 3.22135 41.7537 3.22135ZM24.3218 24.8934C21.181 24.8934 18.6683 22.3807 18.6683 19.2398C18.6683 16.0989 21.181 13.5862 24.3218 13.5862C27.4627 13.5862 29.9754 16.0989 29.9754 19.2398C29.9754 22.3022 27.4627 24.8934 24.3218 24.8934Z" fill="white"/>
<path d="M24.4004 21.7525C25.7881 21.7525 26.9131 20.6275 26.9131 19.2398C26.9131 17.852 25.7881 16.7271 24.4004 16.7271C23.0127 16.7271 21.8877 17.852 21.8877 19.2398C21.8877 20.6275 23.0127 21.7525 24.4004 21.7525Z" fill="white"/>
</svg>
