<svg width="39" height="38" viewBox="0 0 39 38" fill="none" xmlns="http://www.w3.org/2000/svg">
<path fill-rule="evenodd" clip-rule="evenodd" d="M0.892161 0C0.655553 2.36548e-05 0.428637 0.0940214 0.261329 0.261329C0.0940214 0.428637 2.36548e-05 0.655553 0 0.892161V8.66726C2.36548e-05 8.90386 0.0940214 9.13078 0.261329 9.29809C0.428637 9.4654 0.655553 9.55939 0.892161 9.55942H8.2839C8.52051 9.55939 8.74743 9.4654 8.91474 9.29809C9.08204 9.13078 9.17604 8.90386 9.17607 8.66726V0.892161C9.17604 0.655553 9.08204 0.428637 8.91474 0.261329C8.74743 0.0940214 8.52051 2.36548e-05 8.2839 0H0.892161ZM15.8038 0C15.5672 2.36548e-05 15.3403 0.0940214 15.173 0.261329C15.0057 0.428637 14.9117 0.655553 14.9116 0.892161V8.66726C14.9117 8.90386 15.0057 9.13078 15.173 9.29809C15.3403 9.4654 15.5672 9.55939 15.8038 9.55942H23.1958C23.4324 9.55939 23.6593 9.4654 23.8267 9.29809C23.994 9.13078 24.088 8.90386 24.088 8.66726V0.892161C24.088 0.655553 23.994 0.428637 23.8267 0.261329C23.6593 0.0940214 23.4324 2.36548e-05 23.1958 0H15.8038ZM30.7154 0C30.4788 2.36548e-05 30.2519 0.0940214 30.0846 0.261329C29.9173 0.428637 29.8233 0.655553 29.8233 0.892161V8.66726C29.8233 8.90386 29.9173 9.13078 30.0846 9.29809C30.2519 9.4654 30.4788 9.55939 30.7154 9.55942H38.1078C38.3444 9.55939 38.5714 9.4654 38.7387 9.29809C38.906 9.13078 39 8.90386 39 8.66726V0.892161C39 0.655553 38.906 0.428637 38.7387 0.261329C38.5714 0.0940214 38.3444 2.36548e-05 38.1078 0H30.7154ZM1.78432 1.78432H7.39174V7.77509H1.78432V1.78432ZM16.696 1.78432H22.3037V7.77509H16.696V1.78432ZM31.6076 1.78432H37.2157V7.77509H31.6076V1.78432ZM0.892161 14.1471C0.655553 14.1471 0.428637 14.2411 0.261329 14.4084C0.0940214 14.5757 2.36548e-05 14.8026 0 15.0392V22.8142C2.36548e-05 23.0508 0.0940214 23.2778 0.261329 23.4451C0.428637 23.6124 0.655553 23.7064 0.892161 23.7064H8.2839C8.52051 23.7064 8.74743 23.6124 8.91474 23.4451C9.08204 23.2778 9.17604 23.0508 9.17607 22.8142V15.0392C9.17604 14.8026 9.08204 14.5757 8.91474 14.4084C8.74743 14.2411 8.52051 14.1471 8.2839 14.1471H0.892161ZM15.8038 14.1471C15.5672 14.1471 15.3403 14.2411 15.173 14.4084C15.0057 14.5757 14.9117 14.8026 14.9116 15.0392V22.8142C14.9117 23.0508 15.0057 23.2778 15.173 23.4451C15.3403 23.6124 15.5672 23.7064 15.8038 23.7064H23.1958C23.4324 23.7064 23.6593 23.6124 23.8267 23.4451C23.994 23.2778 24.088 23.0508 24.088 22.8142V15.0392C24.088 14.8026 23.994 14.5757 23.8267 14.4084C23.6593 14.2411 23.4324 14.1471 23.1958 14.1471H15.8038ZM30.7154 14.1471C30.4788 14.1471 30.2519 14.2411 30.0846 14.4084C29.9173 14.5757 29.8233 14.8026 29.8233 15.0392V22.8142C29.8233 23.0508 29.9173 23.2778 30.0846 23.4451C30.2519 23.6124 30.4788 23.7064 30.7154 23.7064H38.1078C38.3444 23.7064 38.5714 23.6124 38.7387 23.4451C38.906 23.2778 39 23.0508 39 22.8142V15.0392C39 14.8026 38.906 14.5757 38.7387 14.4084C38.5714 14.2411 38.3444 14.1471 38.1078 14.1471H30.7154ZM1.78432 15.9314H7.39174V21.9221H1.78432V15.9314ZM16.696 15.9314H22.3037V21.9221H16.696V15.9314ZM31.6076 15.9314H37.2157V21.9221H31.6076V15.9314ZM15.8038 28.2941C15.5672 28.2941 15.3403 28.3881 15.173 28.5554C15.0057 28.7227 14.9117 28.9496 14.9116 29.1862V36.9612C14.9117 37.1978 15.0057 37.4248 15.173 37.5921C15.3403 37.7594 15.5672 37.8534 15.8038 37.8534H23.1958C23.4324 37.8534 23.6593 37.7594 23.8267 37.5921C23.994 37.4248 24.088 37.1978 24.088 36.9612V29.1862C24.088 28.9496 23.994 28.7227 23.8267 28.5554C23.6593 28.3881 23.4324 28.2941 23.1958 28.2941H15.8038ZM16.696 30.0784H22.3037V36.0691H16.696V30.0784Z" fill="white"/>
</svg>
