<svg width="64" height="42" viewBox="0 0 64 42" fill="none" xmlns="http://www.w3.org/2000/svg">
<path d="M59.206 38.8312V2.03115C59.206 1.15115 58.486 0.431152 57.606 0.431152H6.41604C5.53604 0.431152 4.81604 1.15115 4.81604 2.03115V38.8312C4.81604 38.8312 59.339 38.8312 59.206 38.8312Z" fill="white"/>
<path d="M56.806 2.56494H7.21704V38.8349H56.806V2.56494Z" fill="black"/>
<path d="M64 38.8311H0V39.8981H64V38.8311Z" fill="#E0E0E0"/>
<path d="M16.311 25.9878L17.306 29.8118C17.523 30.6508 17.725 31.4278 17.865 32.2058H17.912C18.083 31.4428 18.331 30.6348 18.58 29.8278L19.808 25.9878H20.958L22.124 29.7488C22.404 30.6498 22.622 31.4428 22.793 32.2048H22.84C22.964 31.4418 23.166 30.6498 23.415 29.7638L24.487 25.9868H25.84L23.415 33.5098H22.171L21.021 29.9188C20.756 29.0788 20.539 28.3338 20.352 27.4468H20.321C20.135 28.3488 19.902 29.1258 19.638 29.9338L18.426 33.5088H17.182L14.913 25.9858H16.311V25.9878Z" fill="white"/>
<path d="M27.935 25.9878L28.93 29.8118C29.147 30.6508 29.349 31.4278 29.489 32.2058H29.536C29.707 31.4428 29.955 30.6348 30.204 29.8278L31.432 25.9878H32.582L33.748 29.7488C34.028 30.6498 34.246 31.4428 34.417 32.2048H34.464C34.588 31.4418 34.79 30.6498 35.039 29.7638L36.111 25.9868H37.464L35.039 33.5098H33.795L32.645 29.9188C32.38 29.0788 32.163 28.3338 31.976 27.4468H31.945C31.759 28.3488 31.526 29.1258 31.262 29.9338L30.05 33.5088H28.806L26.537 25.9858H27.935V25.9878Z" fill="white"/>
<path d="M39.5589 25.9878L40.5539 29.8118C40.7709 30.6508 40.9729 31.4278 41.1129 32.2058H41.1599C41.3309 31.4428 41.5789 30.6348 41.8279 29.8278L43.0559 25.9878H44.2059L45.3719 29.7488C45.6519 30.6498 45.8699 31.4428 46.0409 32.2048H46.0879C46.2119 31.4418 46.4139 30.6498 46.6629 29.7638L47.7349 25.9868H49.0879L46.6629 33.5098H45.4189L44.2689 29.9188C44.0039 29.0788 43.7869 28.3338 43.5999 27.4468H43.5689C43.3829 28.3488 43.1499 29.1258 42.8859 29.9338L41.6729 33.5088H40.4289L38.1599 25.9858H39.5589V25.9878Z" fill="white"/>
<path d="M31.9375 22.75L31.1809 21.7509C30.6242 21.0226 25.75 14.5172 25.75 11.2761C25.75 7.38783 28.1773 4.875 31.9375 4.875C35.6977 4.875 38.125 7.38783 38.125 11.2761C38.125 14.512 33.2508 21.018 32.6987 21.7509L31.9375 22.75Z" fill="white"/>
<path d="M32.056 13.862C33.7438 13.862 35.112 12.4938 35.112 10.806C35.112 9.11822 33.7438 7.75 32.056 7.75C30.3682 7.75 29 9.11822 29 10.806C29 12.4938 30.3682 13.862 32.056 13.862Z" fill="black"/>
</svg>
