<svg width="54" height="29" viewBox="0 0 54 29" fill="none" xmlns="http://www.w3.org/2000/svg">
<path d="M12 0H6C4.4087 0 2.88258 0.604001 1.75736 1.67913C0.632141 2.75426 0 4.21245 0 5.73291V28.6645H6V17.1987H12V28.6645H18V5.73291C18 4.21245 17.3679 2.75426 16.2426 1.67913C15.1174 0.604001 13.5913 0 12 0ZM12 11.4658H6V5.73291H12M33 0H21V28.6645H27V17.1987H33C34.5913 17.1987 36.1174 16.5947 37.2426 15.5196C38.3679 14.4445 39 12.9863 39 11.4658V5.73291C39 4.21245 38.3679 2.75426 37.2426 1.67913C36.1174 0.604001 34.5913 0 33 0ZM33 11.4658H27V5.73291H33M51 5.73291V22.9316H54V28.6645H42V22.9316H45V5.73291H42V0H54V5.73291H51Z" fill="white"/>
</svg>
