<svg width="56" height="56" viewBox="0 0 56 56" fill="none" xmlns="http://www.w3.org/2000/svg">
<g clip-path="url(#clip0_26906_159)">
<path d="M44.8 36.4C41.16 36.4 38.08 38.64 36.96 42H25.2C25.2 40.04 24.64 38.36 23.8 36.96L43.68 16.52C44.5201 16.52 45.36 16.8 46.2 16.8C50.12 16.8 53.2 13.72 53.2 9.80005C53.2 5.88005 50.12 2.80005 46.2 2.80005C42.28 2.80005 39.2 5.88005 39.2 9.80005C39.2 10.64 39.48 11.76 39.76 12.6L20.16 32.76C18.48 31.36 16.24 30.8 14 30.8V19.04C17.36 17.92 19.6 14.84 19.6 11.2C19.6 6.44005 15.96 2.80005 11.2 2.80005C6.44005 2.80005 2.80005 6.44005 2.80005 11.2C2.80005 14.84 5.04005 17.92 8.40005 19.04V32.2C5.04005 34.16 2.80005 37.8 2.80005 41.72C2.80005 47.88 7.84005 52.92 14 52.92C18.2 52.92 21.84 50.68 23.52 47.32H36.68C37.8 50.4 40.88 52.92 44.52 52.92C49 52.92 52.92 49.28 52.92 44.52C53.2 40.04 49.28 36.4 44.8 36.4Z" fill="white"/>
</g>
<defs>
<clipPath id="clip0_26906_159">
<rect width="56" height="56" fill="white"/>
</clipPath>
</defs>
</svg>
