<svg width="72" height="72" viewBox="0 0 72 72" fill="none" xmlns="http://www.w3.org/2000/svg">
<path d="M28.6965 6.56476V9.66104H20.779V0.0705566H28.6965V3.46384H24.1723V6.56476H28.6965ZM36.8355 3.46384H39.9984V0.0705566H32.0801C32.0801 0.0705566 32.0801 1.77381 32.0801 3.46384C33.1394 4.52317 33.6918 5.03026 35.2239 6.56237C34.3283 6.56237 32.0801 6.56532 32.0801 6.56532V9.66104H39.9984V6.56476L36.8355 3.46384ZM48.058 3.46384H51.2207V0.0705566H43.3027C43.3027 0.0705566 43.3027 1.77381 43.3027 3.46384C44.3617 4.52317 44.9144 5.03026 46.4463 6.56237C45.5513 6.56237 43.3027 6.56532 43.3027 6.56532V9.66104H51.2208V6.56476L48.058 3.46384ZM61.6493 14.219L56.8395 66.3186L35.9999 71.9295L15.1598 66.3186L10.3507 14.219H61.6493ZM51.9577 24.8125H35.981H19.722L20.4995 31.104H35.981H36.8506L35.981 31.4659L21.0653 37.6783L21.5601 43.8279L35.981 43.8747L43.7102 43.8993L43.215 52.0993L35.981 54.1361V54.1296L35.9217 54.1459L28.9349 52.3822L28.5109 47.2923H28.4878H22.0071H21.9843L22.8326 57.1186L35.981 61.0068V60.9997L36.0046 61.0068L49.0828 57.1893L50.7797 37.6785H35.981H35.9445L35.981 37.6627L51.3212 31.1041L51.9577 24.8125Z" fill="white"/>
</svg>
