<svg width="50" height="68" viewBox="0 0 50 68" fill="none" xmlns="http://www.w3.org/2000/svg">
<path d="M4.65189 0H7.83289V3.00297H10.7428V0H13.924V9.0935H10.743V6.0483H7.83316V9.0935H4.65216V0H4.65189ZM18.107 3.01564H15.3068V0H24.0899V3.01564H21.2883V9.0935H18.1073V3.01564H18.107ZM25.4837 0H28.8012L30.8412 3.19524L32.8796 0H36.1975V9.0935H33.0295V4.58641L30.8411 7.81952H30.7865L28.5966 4.58641V9.0935H25.4837V0ZM37.781 0H40.9628V6.08789H45.4364V9.0935H37.781V0ZM0 13.2525L4.55024 62.0175L24.9693 67.4333L45.4449 62.0097L50 13.2523L0 13.2525ZM40.5085 24.8249L40.2236 27.8571L40.0985 29.2015H40.0779H25.0001H24.9782H16.1452L16.7172 35.3256H24.9782H25.0001H37.8417H39.5286L39.3759 36.9318L37.905 52.6778L37.8108 53.6875L25.0001 57.0802V57.0813L24.9713 57.0891L12.1492 53.6878L11.272 44.2971H14.1682H17.5557L18.0014 49.0671L24.9724 50.866L24.9782 50.8643V50.8638L31.9599 49.0638L32.686 41.3068H25.0001H24.9782H10.9925L9.45404 24.8249L9.30419 23.2206H24.9782H25.0001H40.6584L40.5085 24.8249Z" fill="white"/>
</svg>
