<svg width="60" height="65" viewBox="0 0 60 65" fill="none" xmlns="http://www.w3.org/2000/svg">
<path d="M60 18.7378V46.2162C60 47.9995 59.0009 49.6599 57.3954 50.5575L32.6037 64.3043C31.8108 64.746 30.9114 64.973 29.9929 64.973C29.0876 64.973 28.1858 64.746 27.3927 64.3043L19.1149 59.6011C17.8801 58.939 18.4827 58.7035 18.8909 58.5676C20.5398 58.0181 20.8733 57.8914 22.6336 56.9321C22.8172 56.8313 23.0594 56.8707 23.2488 56.9757L29.6082 60.6019C29.8387 60.7266 30.1642 60.7266 30.3762 60.6019L55.1699 46.8589C55.4008 46.7322 55.5488 46.4796 55.5488 46.2164V18.7378C55.5488 18.4686 55.4008 18.2172 55.1641 18.0813L30.3806 4.35049C30.1521 4.22207 29.847 4.22207 29.6169 4.35049L4.83897 18.0851C4.59826 18.2173 4.4464 18.4766 4.4464 18.7378V46.2162C4.4464 46.4793 4.59813 46.726 4.83751 46.8507L11.6295 50.6212C15.3141 52.3889 17.571 50.3052 17.571 48.211V21.0824C17.571 20.6988 17.8918 20.3963 18.2911 20.3963H21.4352C21.8283 20.3963 22.154 20.6986 22.154 21.0824V48.2111C22.154 52.9342 19.4748 55.6434 14.8122 55.6434C13.3801 55.6434 12.2506 55.6434 9.10067 54.1541L2.60008 50.5575C0.993664 49.6681 0 47.9996 0 46.2162V18.7378C0 16.9522 0.993664 15.2857 2.60008 14.3975L27.3928 0.639018C28.9618 -0.213006 31.0481 -0.213006 32.6037 0.639018L57.3954 14.3975C59.0009 15.2894 60 16.9522 60 18.7378ZM38.6287 43.5951C31.2302 43.5951 29.6023 41.8089 29.057 38.2757C28.9938 37.8986 28.6574 37.6177 28.2542 37.6177H24.6389C24.1911 37.6177 23.8318 37.9614 23.8318 38.3938C23.8318 42.9152 26.3943 48.3077 38.6287 48.3077C47.4871 48.3077 52.5664 44.9588 52.5664 39.1094C52.5664 33.3085 48.4849 31.7653 39.8945 30.6731C31.2118 29.5697 30.3295 29.0015 30.3295 27.0483C30.3295 25.4385 31.0766 23.2871 37.5077 23.2871C43.2504 23.2871 45.3676 24.4758 46.2382 28.192C46.3148 28.5423 46.6464 28.7979 47.0224 28.7979H50.6513C50.8764 28.7979 51.0903 28.7051 51.2432 28.5508C51.3965 28.3881 51.4779 28.1761 51.4565 27.9539C50.895 21.5485 46.4633 18.5647 37.5076 18.5647C29.5359 18.5647 24.7815 21.7961 24.7815 27.2111C24.7815 33.0875 29.512 34.7128 37.1609 35.4379C46.3148 36.3002 47.0253 37.5845 47.0253 39.3144C47.0253 42.3149 44.5184 43.5951 38.6287 43.5951Z" fill="white"/>
</svg>
