<svg width="61" height="59" viewBox="0 0 61 59" fill="none" xmlns="http://www.w3.org/2000/svg">
<path d="M18.3 17.4854L19.9484 16.3479C19.432 15.6647 18.5136 15.3775 17.6744 15.6368C16.8352 15.8961 16.2667 16.6427 16.2667 17.4854H18.3ZM30.5 54.3989C15.9013 54.3989 4.06667 43.0913 4.06667 29.1423H0C0 45.237 13.6553 58.2846 30.5 58.2846V54.3989ZM56.9333 29.1423C56.9333 43.0913 45.0989 54.3989 30.5 54.3989V58.2846C47.3445 58.2846 61 45.237 61 29.1423H56.9333ZM30.5 3.88564C45.0989 3.88564 56.9333 15.1934 56.9333 29.1423H61C61 13.0474 47.3445 0 30.5 0V3.88564ZM30.5 0C13.6553 0 0 13.0474 0 29.1423H4.06667C4.06667 15.1934 15.9013 3.88564 30.5 3.88564V0ZM20.3333 46.6277V17.4854H16.2667V46.6277H20.3333ZM16.6516 18.6229L43.0851 53.5934L46.3816 51.3188L19.9484 16.3479L16.6516 18.6229ZM40.6667 15.5426V38.8564H44.7333V15.5426H40.6667Z" fill="white"/>
</svg>
