<svg width="62" height="62" viewBox="0 0 62 62" fill="none" xmlns="http://www.w3.org/2000/svg">
<g clip-path="url(#clip0_26906_164)">
<path d="M34.9447 0.253744C17.9625 -1.91626 2.43149 10.0711 0.253744 27.0552C-1.91626 44.0374 10.0711 59.5684 27.0552 61.7461C44.0374 63.9161 59.5684 51.9288 61.7364 34.9447C63.9161 17.9625 51.9307 2.43149 34.9447 0.253744ZM41.3229 19.5977C40.7475 19.5977 40.2011 19.8302 39.7981 20.2429L28.2952 31.7362L27.4989 30.9476L25.8423 29.2833C37.1747 17.9819 39.2246 17.8695 41.321 19.5958L41.3229 19.5977ZM28.7699 32.1489L40.2321 20.6769C40.8676 20.0104 41.9274 20.0201 42.5649 20.6866C43.1907 21.3628 43.1287 22.4226 42.4234 23.0058L30.285 33.6621L28.7699 32.1489ZM29.6185 33.9469L26.7723 34.5611C26.7122 34.5707 26.6328 34.5397 26.6018 34.47C26.5708 34.408 26.5805 34.3382 26.6328 34.2859L28.2971 32.6216L29.6185 33.9469ZM22.3722 32.7572L25.4102 29.7289L27.681 31.9997L22.5641 33.0982C22.473 33.1196 22.3839 33.0808 22.3412 32.9975C22.2928 32.9181 22.3122 32.8173 22.3722 32.7572ZM12.9579 48.4064C12.8475 48.3967 12.7642 48.296 12.7739 48.1952C12.7836 48.1468 12.8049 48.1042 12.8359 48.0732H12.8456L15.2868 45.6319L18.4469 48.792L12.9579 48.4064ZM19.2219 45.1572C18.9816 45.289 18.8596 45.5622 18.9196 45.8237L19.4447 48.0557C19.528 48.3793 19.1327 48.5982 18.9002 48.358H18.8906L15.7227 45.1882L25.4412 35.4794L30.1436 34.4622L32.393 36.7233C29.1535 39.5676 24.7224 42.4041 19.2238 45.1572H19.2219ZM32.858 36.3087L30.688 34.1387L42.8264 23.4824C42.9369 23.3817 43.0376 23.2712 43.1287 23.1589C42.7567 26.6309 37.8916 31.5347 32.858 36.3087ZM42.313 19.6171H42.3033C38.0737 15.3682 44.049 8.83881 48.6506 12.6731L44.4946 16.8426C44.3726 16.9608 44.3726 17.1662 44.4946 17.2844L47.7128 20.5064C45.9071 21.4035 43.7371 21.0412 42.313 19.6171ZM48.9625 19.6171C48.7513 19.8283 48.5188 20.0201 48.2669 20.1809L45.1495 17.0635L49.1039 13.0974C50.8186 14.9652 50.7489 17.8307 48.9625 19.6171ZM48.7087 15.6317C48.5789 15.7227 48.5285 15.8816 48.5692 16.0347C48.761 16.4164 48.7087 16.8717 48.4374 17.1952C48.3057 17.358 48.3367 17.5808 48.4975 17.7087C48.5595 17.7494 48.6292 17.7804 48.7087 17.7804C48.8191 17.7804 48.9237 17.7397 48.9819 17.6583C49.4372 17.1139 49.5263 16.3466 49.2144 15.7111C49.0923 15.5503 48.8714 15.5096 48.7087 15.6317Z" fill="white"/>
</g>
<defs>
<clipPath id="clip0_26906_164">
<rect width="62" height="62" fill="white"/>
</clipPath>
</defs>
</svg>
