<svg width="64" height="64" viewBox="0 0 64 64" fill="none" xmlns="http://www.w3.org/2000/svg">
<g clip-path="url(#clip0_26906_151)">
<path d="M44.3574 44.0107C46.6774 43.8107 48.472 41.7707 48.3574 39.3333C48.232 36.896 46.2347 34.9387 43.8 34.9387H43.6374C42.4291 34.9817 41.2875 35.5029 40.4634 36.3875C39.6393 37.2721 39.2002 38.4477 39.2427 39.656C39.3227 40.9333 39.8454 41.9733 40.56 42.7307C37.7654 48.1653 33.5707 52.16 27.2134 55.5173C22.9387 57.752 18.424 58.5947 14.0294 57.9973C10.3547 57.4773 7.48002 55.8373 5.72002 53.2C3.08536 49.2027 2.84536 44.8907 5.04002 40.576C6.64002 37.456 9.03736 35.1813 10.6374 34.0613C10.1543 32.722 9.7798 31.346 9.51736 29.9467C-2.31464 38.4213 -1.10931 50.0053 2.48536 55.48C5.16269 59.4747 10.6374 62.0293 16.6294 62.0293C18.2294 62.0293 19.9094 61.912 21.544 61.512C31.936 59.5147 39.8054 53.2827 44.32 44.0933L44.3574 44.0107ZM58.6187 34.0213C52.432 26.7467 43.3174 22.752 32.928 22.752H31.568C30.8934 21.2747 29.336 20.3547 27.5734 20.3547H27.4534C24.9387 20.3547 22.9787 22.5147 23.0614 25.0293C23.1414 27.424 25.1787 29.424 27.616 29.424H27.8134C28.6779 29.3906 29.5145 29.1091 30.2233 28.613C30.9321 28.117 31.4832 27.4274 31.8107 26.6267H33.2907C39.448 26.6267 45.2774 28.424 50.592 31.9387C54.664 34.6187 57.584 38.1333 59.224 42.3307C60.6587 45.7653 60.5814 49.1227 59.104 51.9227C56.824 56.3147 52.9867 58.6347 47.9147 58.6347C44.7174 58.6347 41.6027 57.6347 40.0027 56.9173C39.0427 57.712 37.4427 59.032 36.2854 59.832C39.8 61.4267 43.3574 62.3466 46.792 62.3466C54.584 62.3466 60.376 57.9547 62.576 53.7173C64.9707 48.9226 64.7734 40.8533 58.656 33.9413L58.6187 34.0213ZM17.3067 45.4453C17.3867 47.8427 19.4214 49.84 21.8614 49.84H22.0214C22.6218 49.8264 23.2135 49.6928 23.7616 49.4471C24.3096 49.2013 24.803 48.8484 25.2125 48.409C25.622 47.9697 25.9395 47.4528 26.1462 46.8888C26.3529 46.3249 26.4446 45.7253 26.416 45.1253C26.416 42.7253 24.3387 40.7333 21.9014 40.7333H21.7414C21.5814 40.7333 21.3414 40.7333 21.1387 40.8107C17.824 35.216 16.424 29.2187 16.9467 22.752C17.2667 17.8773 18.8667 13.64 21.7387 10.1253C24.1387 7.12799 28.6534 5.64532 31.7307 5.57065C40.36 5.40799 43.9574 16.16 44.2347 20.4347L48.2294 21.6347C47.3094 8.52532 39.1627 1.65332 31.3707 1.65332C24.0534 1.65332 17.3067 6.96799 14.5867 14.76C10.872 25.1467 13.3094 35.1387 17.8667 43.1307C17.4667 43.6507 17.2267 44.568 17.3067 45.4453Z" fill="white"/>
</g>
<defs>
<clipPath id="clip0_26906_151">
<rect width="64" height="64" fill="white"/>
</clipPath>
</defs>
</svg>
