<svg width="104" height="63" viewBox="0 0 104 63" fill="none" xmlns="http://www.w3.org/2000/svg">
<g clip-path="url(#clip0_26906_156)">
<path d="M51.1853 38.6136C51.1853 40.7287 52.7782 42.4752 54.8434 42.7495C57.2917 48.3868 62.2785 53.8869 69.1107 57.7831C74.8449 61.0531 80.9216 62.6488 86.3723 62.6488C93.3044 62.6488 99.2246 60.0689 102.145 55.0718C106.889 46.9561 102.267 35.6323 91.3118 27.9804C91.3114 29.7283 91.1729 31.3311 90.8629 32.7533C91.7469 33.4894 92.5503 34.1198 93.3343 34.9318C95.3517 37.0207 96.9645 39.1851 98.0679 41.4961C100.126 45.8066 100.265 49.8812 98.4598 52.9699C96.426 56.4495 92.0202 58.4452 86.3723 58.4452C81.4785 58.4452 76.1038 56.9171 71.2386 54.1426C68.4056 52.5271 65.8866 50.5869 63.7512 48.3756C61.7339 46.2866 60.1515 44.0555 59.048 41.7444C58.9518 41.543 58.8611 41.3424 58.7737 41.1424C59.3155 40.4405 59.6381 39.5644 59.6381 38.6136C59.6381 36.3081 57.7458 34.4392 55.4117 34.4392C53.0775 34.4392 51.1853 36.3081 51.1853 38.6136ZM70.0465 0C60.6104 0 52.7899 9.8487 51.3789 22.7203C52.8507 21.8466 54.3917 21.1185 56.0053 20.5433C56.1976 19.5484 56.436 18.5714 56.7202 17.6146C57.5432 14.8444 58.7081 12.3753 60.1827 10.2758C62.9327 6.36009 66.4359 4.20363 70.0465 4.20363C73.6571 4.20363 77.1602 6.36009 79.9102 10.2758C81.3849 12.3753 82.5497 14.8444 83.3727 17.6146C84.2437 20.5468 84.6853 23.6718 84.6853 26.9029C84.6853 30.1341 84.2437 33.2591 83.3727 36.1911C82.5497 38.9613 81.3849 41.4304 79.9102 43.5301C79.7574 43.7475 79.6022 43.9593 79.4449 44.1658C79.193 44.1196 78.9337 44.0943 78.6684 44.0943C76.3341 44.0943 74.442 45.9634 74.442 48.2688C74.442 50.5744 76.3341 52.4434 78.6684 52.4434C81.0024 52.4434 82.8946 50.5744 82.8946 48.2688C82.8946 47.7968 82.8141 47.3435 82.6678 46.9204C86.5182 41.9953 88.9411 34.8527 88.9411 26.9029C88.9411 12.0448 80.4817 0 70.0465 0ZM53.7611 58.4444C48.5785 58.4444 44.4418 56.764 42.224 53.7986C40.9345 54.4717 39.5012 54.8811 37.9883 55.0888C40.926 60.0305 46.8688 62.648 53.7611 62.648C58.0232 62.648 62.6668 61.6728 67.2311 59.6842C65.455 58.7154 63.8814 57.7792 62.7159 56.9086C59.6991 57.9131 56.6466 58.4444 53.7611 58.4444ZM46.7688 34.8641C48.9041 32.6529 51.4231 30.7127 54.256 29.0972C59.1212 26.3225 64.4955 24.7945 69.3884 24.7945H69.3891C70.4583 24.7946 71.4832 24.8662 72.4557 25.0057C72.4805 25.0093 72.5044 25.0139 72.529 25.0175C72.9708 26.8566 74.6432 28.2252 76.6402 28.2252C78.9743 28.2252 80.8664 26.3561 80.8664 24.0507C80.8664 21.7451 78.9743 19.8761 76.6402 19.8761C75.5442 19.8761 74.5458 20.2882 73.7948 20.9641C73.7891 20.963 73.7835 20.9617 73.7777 20.9606C72.3775 20.7149 70.9078 20.591 69.3899 20.5909C63.9386 20.5906 57.8633 22.186 52.1282 25.4567C42.6927 30.8376 36.77 39.2768 36.2041 46.913C37.9179 46.7226 39.3679 46.1609 40.701 45.4346C40.969 44.1595 41.4241 42.8389 42.0655 41.4954C43.1691 39.1842 44.7514 36.9531 46.7688 34.8641Z" fill="white"/>
<path d="M3.65253 28.5234C1.78027 31.3083 5.59262 33.4867 7.29998 30.6865C8.34078 28.9317 9.93722 27.2905 12.0299 25.8565C14.1555 24.3999 16.6553 23.2493 19.4597 22.4366C22.4283 21.5762 25.592 21.1399 28.8631 21.1399C32.1343 21.1399 35.2981 21.5762 38.2666 22.4366C38.7774 22.5846 39.2769 22.7452 39.7671 22.9155C39.8278 25.1687 41.6947 26.9772 43.9906 26.9772C46.3246 26.9772 48.2169 25.1083 48.2169 22.8027C48.2169 20.4971 46.3246 18.6281 43.9906 18.6281C43.2139 18.6281 42.4868 18.8361 41.8615 19.197C37.9981 17.7565 33.5709 16.9363 28.8631 16.9363C17.4759 16.9363 7.7209 21.7249 3.65253 28.5234ZM0.0992737 38.6137C0.0992737 40.7069 1.65914 42.4399 3.69299 42.7415C7.78503 49.505 17.5129 54.2627 28.8631 54.2627C37.7267 54.2627 45.6013 51.3615 50.5749 46.8696C52.9807 44.4807 50.0848 41.7052 47.841 43.6442C47.1982 44.2363 46.4825 44.804 45.6965 45.3425C43.5709 46.799 41.0712 47.9496 38.2666 48.7625C35.2981 49.6228 32.1343 50.0591 28.8631 50.0591C25.592 50.0591 22.4282 49.6228 19.4598 48.7625C16.6552 47.9496 14.1554 46.799 12.0299 45.3425C10.1857 44.0788 8.72834 42.6539 7.69553 41.1324C8.23268 40.4322 8.55199 39.56 8.55199 38.6137C8.55199 36.3081 6.65979 34.4392 4.3255 34.4392C1.99149 34.4392 0.0992737 36.3081 0.0992737 38.6137Z" fill="white"/>
</g>
<defs>
<clipPath id="clip0_26906_156">
<rect width="104" height="63" fill="white" transform="matrix(-1 0 0 1 104 0)"/>
</clipPath>
</defs>
</svg>
