<svg width="61" height="61" viewBox="0 0 61 61" fill="none" xmlns="http://www.w3.org/2000/svg">
<g clip-path="url(#clip0_26906_169)">
<path d="M30.5 0C13.6812 0 0 13.6812 0 30.5C0 47.3188 13.6812 61 30.5 61C47.3188 61 61 47.3188 61 30.5C61 13.6812 47.3188 0 30.5 0ZM30.5 2.91084C45.7405 2.91084 58.0892 15.2614 58.0892 30.5C58.0892 45.7386 45.7386 58.0892 30.5 58.0892C15.2595 58.0892 2.91084 45.7386 2.91084 30.5C2.91084 15.2614 15.2614 2.91084 30.5 2.91084ZM21.2757 14.9126C20.9173 14.9031 20.5608 14.9126 20.1929 14.9221C17.7014 15.0727 16.2031 16.2432 15.7857 18.666C15.4978 20.3645 15.5474 22.0896 15.4273 23.7976C15.3892 24.6821 15.2996 25.5666 15.1299 26.4283C14.7925 27.978 14.1291 28.4641 12.5507 28.5423C12.3392 28.5632 12.1314 28.6033 11.9331 28.6509V32.3643C14.7925 32.5035 15.1814 33.5176 15.4082 36.5047C15.4997 37.597 15.3796 38.6912 15.4482 39.7815C15.4997 40.8166 15.637 41.8384 15.8448 42.8315C16.5005 45.5613 19.1712 46.4744 22.3889 45.9273V42.6619C21.8704 42.6619 21.4148 42.6714 20.9783 42.6619C19.8746 42.6314 19.4685 42.355 19.3694 41.3027C19.2188 39.9436 19.2607 38.5634 19.1807 37.1928C19.011 34.6404 18.7327 32.1394 16.2432 30.521C17.5242 29.5774 18.4563 28.4546 18.7442 26.9658C18.9519 25.9231 19.0816 24.8708 19.1616 23.8186C19.2417 22.7663 19.114 21.6836 19.2017 20.6409C19.3484 18.9538 19.459 18.26 21.4834 18.3286C21.7903 18.3286 22.0877 18.2886 22.427 18.26V14.9336C22.021 14.9336 21.6436 14.924 21.2757 14.9126ZM40.5783 14.9431C39.8826 14.9221 39.1887 14.9736 38.5024 15.0937V18.3286C39.1296 18.3286 39.6157 18.3286 40.0903 18.3381C40.9272 18.3477 41.562 18.6755 41.6401 19.5982C41.7183 20.4426 41.7183 21.2966 41.7983 22.1506C41.968 23.8586 42.0576 25.5742 42.355 27.2537C42.6142 28.6338 43.5673 29.6651 44.7473 30.5191C42.6733 31.9087 42.0576 33.9046 41.9585 36.1482C41.8975 37.6751 41.8593 39.2268 41.7812 40.7747C41.7107 42.1853 41.215 42.6409 39.793 42.6714C39.3965 42.6924 39.0095 42.7229 38.573 42.7496V46.0664C39.3965 46.0664 40.1609 46.1179 40.9272 46.0664C43.289 45.9273 44.7302 44.7759 45.1953 42.4732C45.3935 41.2131 45.5136 39.9321 45.5441 38.6511C45.6223 37.4788 45.6127 36.2969 45.7328 35.136C45.9101 33.3193 46.747 32.5645 48.5617 32.4463C48.7314 32.4253 48.8991 32.3853 49.0707 32.3376V28.6147C48.7638 28.5747 48.5541 28.5442 48.3253 28.5366C46.9662 28.4756 46.2895 28.0181 45.9406 26.7294C45.7328 25.904 45.6032 25.0596 45.5651 24.2056C45.466 22.6367 45.4755 21.0488 45.3764 19.48C45.1686 16.4528 43.3481 15.0213 40.5783 14.9431ZM23.0637 28.3555C20.334 28.3555 20.1357 32.3758 22.8445 32.635H22.9951C24.156 32.7036 25.1511 31.821 25.2197 30.6582V30.5419C25.2407 29.3601 24.2971 28.3764 23.1152 28.3555H23.0637ZM30.46 28.3555C29.3296 28.3173 28.3764 29.2095 28.3345 30.3437C28.3345 30.4123 28.3345 30.4714 28.344 30.5419C28.344 31.8229 29.219 32.6369 30.5305 32.6369C31.821 32.6369 32.635 31.7924 32.635 30.4714C32.6255 29.1904 31.76 28.3459 30.46 28.3574V28.3555ZM37.9858 28.3555C36.7963 28.3345 35.8032 29.28 35.7612 30.4809C35.7612 31.6723 36.7239 32.6369 37.9268 32.6369H37.9477C39.0286 32.8256 40.1113 31.7829 40.1818 30.5324C40.2409 29.3715 39.1887 28.3574 37.9858 28.3574V28.3555Z" fill="white"/>
</g>
<defs>
<clipPath id="clip0_26906_169">
<rect width="61" height="61" fill="white"/>
</clipPath>
</defs>
</svg>
