<svg width="100" height="61" viewBox="0 0 100 61" fill="none" xmlns="http://www.w3.org/2000/svg">
<g clip-path="url(#clip0_26906_153)">
<path d="M50.7833 37.3878C50.7833 39.4357 49.2518 41.1268 47.2659 41.3923C44.9118 46.8507 40.1168 52.1762 33.5474 55.9487C28.0337 59.1149 22.1908 60.6599 16.9497 60.6599C10.2842 60.6599 4.59178 58.162 1.78321 53.3234C-2.77805 45.4655 1.66633 34.5012 12.2002 27.0922C12.2006 28.7846 12.3337 30.3365 12.6318 31.7135C11.7818 32.4263 11.0093 33.0367 10.2555 33.8228C8.31569 35.8455 6.76492 37.9411 5.70392 40.1788C3.7249 44.3524 3.59114 48.2977 5.32707 51.2884C7.2827 54.6574 11.519 56.5898 16.9497 56.5898C21.6553 56.5898 26.8232 55.1102 31.5014 52.4238C34.2254 50.8596 36.6475 48.9809 38.7007 46.8399C40.6405 44.8172 42.162 42.6569 43.2231 40.4192C43.3156 40.2242 43.4028 40.03 43.4868 39.8363C42.9658 39.1567 42.6557 38.3084 42.6557 37.3878C42.6557 35.1554 44.4752 33.3459 46.7195 33.3459C48.9639 33.3459 50.7833 35.1554 50.7833 37.3878ZM32.6476 0C41.7208 0 49.2405 9.53605 50.5972 21.9991C49.182 21.1531 47.7003 20.4481 46.1488 19.8911C45.9639 18.9279 45.7346 17.9818 45.4613 17.0554C44.67 14.3732 43.5499 11.9825 42.132 9.94955C39.4878 6.15818 36.1194 4.07018 32.6476 4.07018C29.1759 4.07018 25.8075 6.15818 23.1632 9.94955C21.7453 11.9825 20.6252 14.3732 19.8339 17.0554C18.9965 19.8945 18.5718 22.9203 18.5718 26.0489C18.5718 29.1775 18.9965 32.2032 19.8339 35.0422C20.6252 37.7244 21.7453 40.1152 23.1632 42.1482C23.3102 42.3587 23.4594 42.5638 23.6107 42.7637C23.8529 42.7189 24.1022 42.6945 24.3573 42.6945C26.6018 42.6945 28.4211 44.5042 28.4211 46.7365C28.4211 48.9688 26.6018 50.7785 24.3573 50.7785C22.1131 50.7785 20.2937 48.9688 20.2937 46.7365C20.2937 46.2794 20.371 45.8405 20.5117 45.4308C16.8094 40.6621 14.4797 33.7462 14.4797 26.0489C14.4797 11.6625 22.6137 0 32.6476 0ZM48.3066 56.589C53.2899 56.589 57.2675 54.9619 59.4 52.0907C60.6399 52.7424 62.018 53.1389 63.4728 53.34C60.6481 58.1247 54.9339 60.6592 48.3066 60.6592C44.2084 60.6592 39.7435 59.7149 35.3547 57.7894C37.0625 56.8514 38.5756 55.9449 39.6963 55.102C42.5971 56.0746 45.5321 56.589 48.3066 56.589ZM55.03 33.7573C52.9768 31.6163 50.5547 29.7377 47.8308 28.1734C43.1526 25.4869 37.9851 24.0074 33.2804 24.0074H33.2798C32.2516 24.0075 31.2662 24.0768 30.331 24.2119C30.3072 24.2153 30.2842 24.2198 30.2606 24.2233C29.8358 26.004 28.2277 27.3291 26.3075 27.3291C24.0631 27.3291 22.2438 25.5194 22.2438 23.2872C22.2438 21.0548 24.0631 19.2451 26.3075 19.2451C27.3613 19.2451 28.3213 19.6441 29.0434 20.2985C29.0489 20.2975 29.0543 20.2962 29.0599 20.2952C30.4062 20.0573 31.8194 19.9373 33.279 19.9372C38.5205 19.9369 44.3622 21.4817 49.8767 24.6485C58.9493 29.8586 64.6442 38.0299 65.1883 45.4237C63.5405 45.2393 62.1463 44.6954 60.8644 43.9922C60.6067 42.7577 60.1691 41.479 59.5524 40.1781C58.4913 37.9402 56.9698 35.78 55.03 33.7573Z" fill="white"/>
<path d="M96.4879 27.6178C98.2882 30.3142 94.6225 32.4235 92.9808 29.7121C91.98 28.0131 90.445 26.4239 88.4328 25.0355C86.389 23.6252 83.9852 22.5111 81.2887 21.7241C78.4344 20.891 75.3923 20.4686 72.247 20.4686C69.1016 20.4686 66.0595 20.891 63.2052 21.7241C62.714 21.8675 62.2337 22.0229 61.7624 22.1879C61.704 24.3695 59.9089 26.1206 57.7014 26.1206C55.4571 26.1206 53.6375 24.311 53.6375 22.0786C53.6375 19.8463 55.4571 18.0366 57.7014 18.0366C58.4482 18.0366 59.1473 18.2379 59.7485 18.5874C63.4634 17.1926 67.7203 16.3984 72.247 16.3984C83.1962 16.3984 92.576 21.035 96.4879 27.6178ZM99.9045 37.3876C99.9045 39.4145 98.4047 41.0924 96.449 41.3844C92.5144 47.9332 83.1607 52.5399 72.247 52.5399C63.7243 52.5399 56.1526 49.7308 51.3703 45.3815C49.057 43.0685 51.8415 40.381 53.999 42.2585C54.6171 42.8318 55.3053 43.3815 56.061 43.9029C58.1049 45.3132 60.5085 46.4273 63.2052 47.2143C66.0595 48.0473 69.1016 48.4697 72.247 48.4697C75.3923 48.4697 78.4345 48.0473 81.2887 47.2143C83.9854 46.4273 86.3891 45.3132 88.4328 43.9029C90.2061 42.6793 91.6073 41.2996 92.6004 39.8264C92.0839 39.1485 91.7769 38.3039 91.7769 37.3876C91.7769 35.1553 93.5963 33.3457 95.8408 33.3457C98.0851 33.3457 99.9045 35.1553 99.9045 37.3876Z" fill="white"/>
</g>
<defs>
<clipPath id="clip0_26906_153">
<rect width="100" height="61" fill="white"/>
</clipPath>
</defs>
</svg>
