<svg width="30" height="32" viewBox="0 0 30 32" fill="none" xmlns="http://www.w3.org/2000/svg">
<rect width="30" height="31.9242" rx="5" fill="white"/>
<path d="M11.2536 23.8576C11.2536 23.9655 11.1457 24.0426 10.9915 24.0426C10.8374 24.0426 10.714 24.0426 10.714 23.8576C10.714 23.6726 10.8374 23.6726 10.9761 23.6726C11.1149 23.6726 11.2536 23.7497 11.2536 23.8576ZM9.71194 23.6264C9.71194 23.7343 9.71194 23.8576 9.92777 23.8884C9.98298 23.915 10.0465 23.9185 10.1042 23.8983C10.1621 23.8781 10.2095 23.8357 10.2361 23.7805C10.2361 23.6726 10.2361 23.5647 10.0203 23.5184C9.80444 23.4722 9.74277 23.5184 9.71194 23.6264ZM11.9011 23.5493C11.7624 23.5493 11.6699 23.6726 11.6853 23.7959C11.7007 23.9193 11.824 23.9655 11.9782 23.9347C12.1324 23.9039 12.2094 23.7959 12.194 23.688C12.1786 23.5801 12.0553 23.5339 11.9011 23.5493ZM15.1848 4.00097C13.559 3.98566 11.9467 4.29899 10.4449 4.92215C8.9431 5.5453 7.58265 6.46545 6.44521 7.62735C5.30778 8.78926 4.41681 10.169 3.82576 11.6837C3.23472 13.1985 2.95577 14.817 3.00569 16.4422C2.96265 19.1045 3.75221 21.7138 5.26408 23.9055C6.77594 26.0973 8.93462 27.7622 11.4386 28.6676C12.0707 28.7755 12.3019 28.3747 12.3019 28.0509C12.3019 27.7272 12.3019 25.9851 12.3019 24.9676C12.3019 24.9676 8.81777 25.7384 8.07777 23.4259C8.07777 23.4259 7.52277 21.8843 6.70569 21.5605C6.70569 21.5605 5.56486 20.7589 6.78277 20.7743C7.18166 20.8281 7.56239 20.9747 7.89439 21.2022C8.22639 21.4298 8.50041 21.7321 8.69444 22.0847C8.85574 22.4009 9.07996 22.6808 9.35333 22.9072C9.62669 23.1336 9.94344 23.3018 10.2841 23.4014C10.6248 23.501 10.9823 23.53 11.3346 23.4865C11.6869 23.443 12.0265 23.3279 12.3327 23.1484C12.3912 22.5048 12.6687 21.9008 13.119 21.4372C10.344 21.1134 7.53819 20.7126 7.53819 15.7947C7.50871 15.2391 7.59798 14.6836 7.8 14.1653C8.00203 13.647 8.3122 13.1776 8.70986 12.7885C8.33468 11.6599 8.37846 10.434 8.83319 9.33514C9.88152 8.99597 12.2711 10.7072 12.2711 10.7072C14.3125 10.1315 16.4735 10.1315 18.5148 10.7072C18.5148 10.7072 20.9044 8.99597 21.9527 9.33514C22.4174 10.4319 22.4612 11.6614 22.0761 12.7885C22.4878 13.1722 22.8144 13.638 23.0348 14.1559C23.2551 14.6737 23.3644 15.232 23.3556 15.7947C23.3556 20.728 20.4265 21.1134 17.6515 21.4372C17.9304 21.75 18.1427 22.1164 18.2752 22.514C18.4077 22.9116 18.4578 23.332 18.4223 23.7497C18.4223 25.4764 18.4223 27.6039 18.4223 28.0201C18.4214 28.1242 18.4454 28.227 18.4926 28.3198C18.5399 28.4126 18.6087 28.4928 18.6935 28.5532C18.7781 28.6138 18.8763 28.653 18.9793 28.6674C19.0825 28.6821 19.1876 28.6715 19.2856 28.6368C21.7851 27.7392 23.9393 26.0791 25.4441 23.8911C26.9491 21.703 27.7284 19.0972 27.6723 16.4422C27.6868 14.8005 27.3734 13.1723 26.7504 11.6533C26.1274 10.1343 25.2073 8.75496 24.0443 7.59618C22.8813 6.4374 21.4984 5.5225 19.9771 4.90514C18.4558 4.28778 16.8265 3.98039 15.1848 4.00097ZM7.84652 21.5914C7.84652 21.5914 7.84652 21.7609 7.84652 21.8534C7.86371 21.8707 7.88412 21.8844 7.90662 21.8937C7.92911 21.9031 7.95321 21.9079 7.97756 21.9079C8.00191 21.9079 8.02602 21.9031 8.04851 21.8937C8.07099 21.8844 8.09142 21.8707 8.10861 21.8534C8.10861 21.8534 8.10861 21.6839 8.10861 21.5759C8.10861 21.468 7.90819 21.5297 7.84652 21.5914ZM7.30694 21.1751C7.30694 21.1751 7.30694 21.3293 7.41486 21.3755C7.42785 21.3917 7.4443 21.4047 7.46297 21.4136C7.48164 21.4224 7.50208 21.4272 7.52277 21.4272C7.54346 21.4272 7.56389 21.4224 7.58256 21.4136C7.60124 21.4047 7.61768 21.3917 7.63069 21.3755C7.63069 21.3755 7.63069 21.2214 7.52277 21.1751C7.41486 21.1289 7.33777 21.1289 7.30694 21.1751ZM8.84861 22.9943C8.84861 22.9943 8.84861 23.2101 8.84861 23.318C8.84861 23.4259 9.11069 23.4414 9.17236 23.318C9.23402 23.1947 9.17236 23.1022 9.17236 22.9943C9.17236 22.8864 8.97194 22.9172 8.91027 22.9943H8.84861ZM8.27819 22.2389C8.27819 22.2389 8.27819 22.4239 8.27819 22.5472C8.27819 22.6705 8.49402 22.7168 8.57111 22.6705C8.61014 22.6257 8.63165 22.5682 8.63165 22.5086C8.63165 22.4491 8.61014 22.3916 8.57111 22.3468C8.49402 22.2234 8.37069 22.1772 8.27819 22.2389Z" fill="#17181C"/>
</svg>
