<svg width="30" height="32" viewBox="0 0 30 32" fill="none" xmlns="http://www.w3.org/2000/svg">
<rect width="30" height="31.9242" rx="5" fill="white"/>
<g clip-path="url(#clip0_16_177)">
<path d="M17.5418 9.75465C18.3557 9.92364 19.1038 10.3473 19.6902 10.9713C20.2766 11.5953 20.6746 12.3913 20.8334 13.2574M17.5418 6.20752C19.2328 6.40743 20.8098 7.21329 22.0136 8.49277C23.2175 9.77225 23.9768 11.4493 24.1668 13.2486M23.3334 20.3251V22.9855C23.3344 23.2324 23.2868 23.4769 23.1939 23.7032C23.1009 23.9295 22.9645 24.1326 22.7935 24.2996C22.6225 24.4665 22.4206 24.5936 22.2007 24.6727C21.9809 24.7519 21.7479 24.7813 21.5168 24.759C18.9525 24.4625 16.4893 23.5301 14.3251 22.0366C12.3116 20.6751 10.6046 18.8585 9.32511 16.7159C7.91676 14.4025 7.04031 11.7685 6.76677 9.02749C6.74595 8.78227 6.77334 8.53511 6.84719 8.30177C6.92105 8.06842 7.03975 7.854 7.19575 7.67215C7.35174 7.4903 7.54161 7.345 7.75327 7.24552C7.96492 7.14603 8.19372 7.09453 8.42511 7.0943H10.9251C11.3295 7.09007 11.7216 7.24247 12.0282 7.52309C12.3349 7.80372 12.5352 8.19342 12.5918 8.61957C12.6973 9.47094 12.893 10.3069 13.1751 11.1114C13.2872 11.4288 13.3115 11.7738 13.245 12.1054C13.1786 12.437 13.0242 12.7414 12.8001 12.9825L11.7418 14.1088C12.9281 16.3289 14.6555 18.1671 16.7418 19.4295L17.8001 18.3032C18.0267 18.0648 18.3127 17.9005 18.6244 17.8298C18.936 17.7591 19.2602 17.7849 19.5584 17.9042C20.3145 18.2044 21.1001 18.4127 21.9001 18.5249C22.3049 18.5857 22.6746 18.8027 22.9389 19.1346C23.2032 19.4665 23.3436 19.8902 23.3334 20.3251Z" stroke="#17181C" stroke-width="2" stroke-linecap="round" stroke-linejoin="round"/>
</g>
<defs>
<clipPath id="clip0_16_177">
<rect width="20" height="21.2828" fill="white" transform="translate(5 5.3208)"/>
</clipPath>
</defs>
</svg>
